<svg xmlns="http://www.w3.org/2000/svg" width="1667" height="1667" viewBox="0 0 1667 1667" version="1.1"><path d="M 825.568 74.514 C 804.520 77.945, 785.844 87.820, 771.789 102.948 C 738.982 138.262, 740.645 190.599, 775.638 224.061 C 784.165 232.215, 789.868 236.133, 800.327 241.023 C 823.312 251.771, 849.871 252.722, 873.990 243.663 C 882.647 240.411, 895.762 233.197, 898.068 230.418 C 899.634 228.531, 898.392 228.629, 891.741 230.917 C 888.676 231.971, 881.907 233.371, 876.699 234.026 C 846.408 237.839, 816.428 223.245, 801.098 197.226 C 776.630 155.697, 799.886 103.539, 848.500 90.910 C 862.578 87.253, 883.247 88.445, 895.653 93.628 C 904.201 97.200, 895.153 89.588, 884.286 84.066 C 866.202 74.877, 844.753 71.387, 825.568 74.514 M 1065.112 1238.517 C 1046.697 1243.688, 1033.872 1258.054, 1030.969 1276.762 C 1027.755 1297.477, 1039.902 1318.857, 1059 1326.100 C 1072.434 1331.195, 1085.476 1330.638, 1097.820 1324.443 C 1108.358 1319.154, 1116.114 1310.443, 1120.326 1299.168 C 1123.169 1291.557, 1123.341 1275.912, 1120.665 1268.237 C 1116.285 1255.671, 1105.590 1244.647, 1093.225 1239.951 C 1085.732 1237.105, 1072.535 1236.432, 1065.112 1238.517" stroke="none" fill="#ffffff" fill-rule="evenodd"/><path d="" stroke="none" fill="#000000" fill-rule="evenodd"/><path d="M 825.568 74.514 C 804.520 77.945, 785.844 87.820, 771.789 102.948 C 738.982 138.262, 740.645 190.599, 775.638 224.061 C 784.165 232.215, 789.868 236.133, 800.327 241.023 C 823.312 251.771, 849.871 252.722, 873.990 243.663 C 882.647 240.411, 895.762 233.197, 898.068 230.418 C 899.634 228.531, 898.392 228.629, 891.741 230.917 C 888.676 231.971, 881.907 233.371, 876.699 234.026 C 846.408 237.839, 816.428 223.245, 801.098 197.226 C 776.630 155.697, 799.886 103.539, 848.500 90.910 C 862.578 87.253, 883.247 88.445, 895.653 93.628 C 904.201 97.200, 895.153 89.588, 884.286 84.066 C 866.202 74.877, 844.753 71.387, 825.568 74.514 M 1065.112 1238.517 C 1046.697 1243.688, 1033.872 1258.054, 1030.969 1276.762 C 1027.755 1297.477, 1039.902 1318.857, 1059 1326.100 C 1072.434 1331.195, 1085.476 1330.638, 1097.820 1324.443 C 1108.358 1319.154, 1116.114 1310.443, 1120.326 1299.168 C 1123.169 1291.557, 1123.341 1275.912, 1120.665 1268.237 C 1116.285 1255.671, 1105.590 1244.647, 1093.225 1239.951 C 1085.732 1237.105, 1072.535 1236.432, 1065.112 1238.517" stroke="none" fill="#ffffff" fill-rule="evenodd"/><path d="" stroke="none" fill="#000000" fill-rule="evenodd"/><path d="M 792.602 147.215 C 791.233 154.015, 790.881 164.692, 791.851 170 C 792.798 175.181, 792.825 175.035, 792.318 167.465 C 792.022 163.046, 792.293 156.122, 792.920 152.079 C 794.068 144.680, 793.834 141.099, 792.602 147.215 M 840.500 250 L 830.500 250.613 840 250.688 C 845.225 250.729, 850.850 250.420, 852.500 250 C 856.097 249.085, 855.438 249.085, 840.500 250 M 747.711 1474.994 C 502.881 1479.724, 311.712 1501.173, 255.780 1530.187 C 247.718 1534.369, 241.501 1540.158, 240.412 1544.494 C 238.861 1550.674, 245.372 1557.695, 258.500 1564 C 307.543 1587.554, 451.622 1606.593, 640.500 1614.477 C 752.548 1619.154, 905.277 1619.360, 1015.500 1614.984 C 1213.348 1607.127, 1362.010 1587.668, 1410.419 1563.289 C 1422.839 1557.034, 1427 1552.684, 1427 1545.954 C 1427 1515.878, 1268.055 1488.713, 1032.500 1478.530 C 949.604 1474.946, 828.217 1473.439, 747.711 1474.994" stroke="none" fill="#e9e9e9" fill-rule="evenodd"/><path d="M 607.500 11.461 C 592.723 14.700, 579.987 22.075, 568.804 33.866 C 560.226 42.911, 554.992 51.436, 551.224 62.500 L 548.500 70.500 548.221 164.784 C 547.950 256.220, 548.002 259.324, 549.948 267.518 C 552.102 276.586, 556.209 285.660, 561.566 293.184 L 564.901 297.867 562.534 309.184 C 561.232 315.408, 559.617 323.995, 558.944 328.266 C 557.821 335.395, 557.506 336.080, 555.110 336.616 C 546.889 338.456, 543.826 339.535, 537.500 342.816 C 532.795 345.257, 527.965 348.997, 522.768 354.224 C 516.324 360.705, 514.213 363.709, 510.105 372.250 C 507.394 377.888, 504.416 385.425, 503.488 389 C 501.810 395.463, 500.193 422.453, 501.309 425.363 C 501.760 426.539, 502.690 426.632, 506.165 425.852 C 508.529 425.320, 514.926 424.260, 520.381 423.494 C 529.307 422.241, 530.635 421.777, 533.650 418.855 C 536.613 415.983, 537 415.001, 537 410.353 C 537 399.234, 541.806 385.629, 547.949 379.358 C 554.826 372.336, 562.929 370.801, 578.930 373.488 C 584.541 374.430, 589.325 375.008, 589.562 374.772 C 589.798 374.535, 590.659 367.627, 591.475 359.421 C 593.192 342.159, 595.866 323.835, 596.916 322.136 C 597.460 321.255, 598.735 321.348, 602.020 322.507 C 604.428 323.357, 610.696 324.509, 615.949 325.068 C 622.204 325.734, 699.530 325.982, 840 325.788 L 1054.500 325.491 1062 323.349 C 1066.125 322.170, 1069.609 321.307, 1069.743 321.429 C 1070.721 322.328, 1074.497 349.899, 1075.593 364.150 C 1075.959 368.908, 1076.597 373.349, 1077.011 374.018 C 1077.597 374.965, 1079.873 374.876, 1087.256 373.618 C 1100.298 371.395, 1105.503 371.555, 1111.541 374.367 C 1121.624 379.062, 1128.396 391.711, 1129.692 408.269 C 1130.267 415.631, 1130.492 416.212, 1133.983 419.366 C 1137.215 422.286, 1138.577 422.780, 1145.084 423.392 C 1149.163 423.776, 1155.345 424.696, 1158.823 425.436 C 1164.282 426.599, 1165.222 426.585, 1165.702 425.335 C 1166.999 421.953, 1165.222 397.317, 1163.080 389 C 1159.329 374.435, 1153.917 364.852, 1143.537 354.396 C 1133.818 344.606, 1126.872 340.414, 1115.599 337.537 C 1112.353 336.708, 1109.529 335.862, 1109.323 335.656 C 1109.117 335.451, 1108.275 331.281, 1107.452 326.391 C 1106.629 321.501, 1105.031 313.138, 1103.902 307.806 L 1101.849 298.113 1106.013 291.981 C 1110.893 284.794, 1114.204 277.624, 1116.702 268.831 C 1118.375 262.939, 1118.500 255.953, 1118.500 168 C 1118.500 62.032, 1118.916 68.482, 1111.055 52.500 C 1101.633 33.344, 1084.253 18.675, 1063.500 12.364 C 1057.778 10.624, 1047.211 10.530, 835.500 10.343 C 655.164 10.183, 612.374 10.393, 607.500 11.461 M 831.889 73.157 C 815.572 74.401, 802.384 79.022, 787.920 88.563 C 764 104.341, 749.902 128.326, 747.400 157.500 C 746.311 170.199, 750.764 189.362, 757.740 202 C 771.427 226.796, 794.541 243.391, 823.281 249.055 C 835.774 251.518, 844.843 251.510, 857.643 249.025 C 869.117 246.797, 875.297 244.585, 885.792 238.952 C 900.268 231.181, 904.190 225.978, 892.555 229.981 C 889.352 231.083, 881.955 232.500, 876.116 233.129 C 834.287 237.640, 797.713 210.096, 792.836 170.410 C 788.377 134.127, 811.104 101.689, 847.917 91.795 C 858.832 88.861, 876.589 88.946, 887.500 91.984 C 898.837 95.141, 900 95.353, 900 94.261 C 900 92.739, 889.263 85.638, 881 81.695 C 866.334 74.698, 849.670 71.801, 831.889 73.157 M 553.414 419.547 C 549.205 421.103, 544.367 425.118, 539.998 430.680 C 537.563 433.780, 537.159 433.902, 524.080 435.510 C 492.549 439.387, 471.037 447.846, 456.890 461.931 C 445.012 473.758, 441.369 484.316, 442.373 504 C 444.174 539.327, 456.716 569.829, 483.696 604.500 C 492.714 616.089, 504.038 628.778, 527 653.024 C 551.277 678.659, 560.710 689.249, 567.875 698.913 C 582.739 718.960, 593.340 743.463, 597.448 767.269 L 598.961 776.039 595.033 779.967 C 589.405 785.595, 588.539 789.722, 589.997 803.953 C 593.548 838.595, 603.580 879.350, 616.456 911.436 C 644.758 981.964, 690.509 1030.823, 749.469 1053.485 C 768.262 1060.709, 791.901 1065.959, 812.825 1067.557 L 822.151 1068.270 821.481 1073.385 C 819.824 1086.049, 816.675 1102.654, 813.401 1116 C 809.856 1130.445, 797.311 1170, 796.274 1170 C 795.974 1170, 786.227 1164.975, 774.614 1158.833 C 672.487 1104.822, 620.429 1083.511, 575.500 1077.317 C 558.272 1074.943, 520.453 1074.956, 505 1077.342 C 467.020 1083.207, 440.490 1095.619, 418.259 1117.924 C 393.457 1142.809, 378.947 1175.985, 372.304 1223 C 370.063 1238.860, 369.750 1298.180, 371.817 1315.449 C 376.469 1354.318, 388.143 1381.732, 409.460 1403.845 C 433.525 1428.809, 463.810 1441.255, 504 1442.699 C 563.451 1444.835, 632.231 1418.968, 689.488 1372.941 C 705.678 1359.926, 725.527 1340.150, 738.129 1324.476 C 758.256 1299.443, 782.125 1261.453, 799.457 1226.862 L 809.797 1206.225 814.149 1208.716 C 823.286 1213.946, 881.295 1242.988, 898.319 1250.854 C 934.249 1267.456, 965.331 1279.428, 992.260 1287.039 C 1000.013 1289.230, 1006.413 1291.130, 1006.484 1291.261 C 1006.554 1291.393, 1007.188 1294.425, 1007.892 1298 C 1010.401 1310.748, 1016.413 1321.630, 1026.847 1332.311 C 1042.709 1348.550, 1063.575 1356.014, 1085.096 1353.149 C 1102.260 1350.864, 1114.001 1344.982, 1126.660 1332.328 C 1141.120 1317.875, 1147.644 1300.856, 1146.719 1280 C 1146.126 1266.621, 1142.837 1256.034, 1136.115 1245.869 C 1126.789 1231.768, 1113.755 1221.513, 1098.852 1216.552 C 1088.002 1212.940, 1072.993 1212.060, 1062.035 1214.393 C 1039.169 1219.261, 1018.432 1237.394, 1010.450 1259.500 C 1009.458 1262.250, 1008.573 1264.614, 1008.486 1264.754 C 1008.111 1265.349, 980.073 1256.663, 967.835 1252.159 C 936.626 1240.674, 907.333 1227.360, 855.925 1201.296 L 819.350 1182.752 823.204 1172.626 C 833.837 1144.691, 843.729 1105.321, 846.969 1078.037 C 847.587 1072.832, 848.184 1068.488, 848.296 1068.383 C 848.408 1068.278, 854.741 1067.475, 862.369 1066.599 C 904.757 1061.727, 941.684 1046.605, 973 1021.294 C 983.567 1012.753, 1003.193 992.266, 1011.791 980.801 C 1042.053 940.445, 1063.521 886.921, 1073.526 826.884 C 1076.268 810.429, 1077.715 791.983, 1076.609 787.577 C 1076.237 786.095, 1074.070 782.861, 1071.794 780.392 L 1067.655 775.902 1069.369 766.201 C 1072.925 746.080, 1082.562 722.711, 1094.830 704.458 C 1102.209 693.480, 1112.754 681.392, 1141.015 651.512 C 1166.566 624.498, 1176.374 613.319, 1187.083 599 C 1209.326 569.261, 1221.175 540.711, 1223.994 510.064 C 1225.803 490.404, 1223.435 479.120, 1215.156 467.948 C 1202.019 450.220, 1176.227 439.070, 1138.750 434.917 C 1132.838 434.262, 1128 433.401, 1128 433.004 C 1128 430.919, 1118.945 422.418, 1114.538 420.366 C 1104.422 415.655, 1094.409 417.611, 1085.833 425.974 C 1081.245 430.448, 1079.846 432.613, 1078.484 437.347 C 1075.586 447.420, 1078.029 455.803, 1086.167 463.709 C 1093.078 470.421, 1102.703 472.667, 1112.272 469.800 C 1117.003 468.383, 1126.217 460.304, 1127.993 456.017 C 1129.455 452.488, 1129.566 452.478, 1143.970 454.525 C 1174.294 458.834, 1194.667 468.518, 1202.046 482.128 C 1205.428 488.367, 1205.499 488.740, 1205.450 500 C 1205.293 536.351, 1189.659 569.801, 1153.723 610.680 C 1148.007 617.181, 1134.797 631.500, 1124.367 642.500 C 1095.764 672.665, 1086.533 683.359, 1078.010 696.203 C 1063.039 718.764, 1053.924 741.868, 1049.913 767.425 C 1048.764 774.749, 1048.348 775.660, 1044.438 779.425 C 1039.413 784.265, 1038.732 786.502, 1036.500 805.500 C 1031.743 845.996, 1019.421 887.489, 1001.841 922.213 C 971.263 982.613, 926.015 1017.005, 864.407 1026.674 C 850.925 1028.790, 818.770 1029.034, 805 1027.124 C 756.187 1020.355, 715.897 996.754, 686.631 957.787 C 668.214 933.266, 652.401 899.971, 642.020 863.855 C 637.064 846.609, 631.517 819.428, 630.010 805 C 628.125 786.956, 627.426 784.618, 622.449 779.711 C 618.084 775.408, 617.999 775.194, 615.999 763.495 C 612.110 740.747, 602.406 716.675, 589.133 696.850 C 580.353 683.736, 572.044 674.031, 545.598 646 C 509.604 607.848, 499.681 596.231, 487.471 577.956 C 469.566 551.158, 460.139 522.178, 461.176 497.118 C 461.520 488.798, 461.969 486.777, 464.505 482.141 C 472.677 467.203, 496.050 457.216, 531.750 453.408 C 536.911 452.858, 538 453.001, 538 454.227 C 538 456.878, 544.931 464.875, 549.599 467.611 C 556.192 471.474, 565.718 472.037, 572.817 468.983 C 579.097 466.282, 586.109 458.917, 587.811 453.236 C 589.326 448.181, 589.331 440.837, 587.824 435.807 C 586.317 430.778, 579.926 423.514, 574.628 420.808 C 569.300 418.088, 559.015 417.476, 553.414 419.547 M 519.319 467.372 C 515.920 467.992, 512.854 468.791, 512.506 469.147 C 511.818 469.850, 518.583 483.821, 522.802 490.409 C 531.992 504.762, 545.609 519.339, 558.264 528.369 C 564.905 533.107, 580.547 541, 583.298 541 C 584.233 541, 587.087 545.728, 590.851 553.515 C 624.030 622.151, 679.753 676.936, 742 702.121 L 751.500 705.965 680.750 705.982 C 641.837 705.992, 610 706.387, 610 706.859 C 610 707.332, 611.647 711.269, 613.659 715.609 C 615.672 719.949, 618.967 728.225, 620.982 734 L 624.645 744.500 833.439 744.500 L 1042.232 744.500 1045.016 736 C 1046.546 731.325, 1049.681 723.225, 1051.981 718 C 1054.281 712.775, 1056.399 707.938, 1056.688 707.250 C 1057.106 706.257, 1042.643 705.991, 986.357 705.957 L 915.500 705.913 923.847 702.495 C 950.514 691.576, 974.028 676.975, 997.533 656.740 C 1027.556 630.894, 1053.445 597.391, 1072.735 559.420 L 1081.920 541.340 1086.210 540.057 C 1102.033 535.322, 1123.563 518.396, 1137.163 500 C 1144.536 490.027, 1153.041 474.934, 1153.296 471.373 C 1153.498 468.539, 1153.414 468.494, 1145.286 467.107 L 1137.071 465.704 1132.470 470.822 C 1127.138 476.753, 1117.996 481.672, 1110.500 482.645 C 1105.977 483.231, 1104.728 484.030, 1097.403 491.022 C 1087.076 500.879, 1076.405 506.416, 1064.148 508.275 L 1055.796 509.542 1048.999 525.285 C 1021.956 587.925, 979.961 634.953, 927.657 661.172 C 907.443 671.305, 888.560 677.585, 866.500 681.512 C 853.898 683.756, 826.938 684.547, 812.944 683.085 C 745.524 676.037, 685.406 637.275, 643.762 574 C 634.533 559.977, 622.043 536.221, 615.506 520.256 C 613.424 515.173, 611.221 510.619, 610.610 510.137 C 610 509.656, 606.007 508.755, 601.737 508.135 C 588.806 506.258, 573.999 497.862, 565.329 487.489 C 562.247 483.802, 561.136 483.171, 557.027 482.777 C 549.874 482.089, 539.752 476.902, 534.139 471.047 C 528.964 465.650, 528.875 465.628, 519.319 467.372 M 539.500 706.652 C 481.820 713.418, 435.945 732.015, 394 765.636 C 383.450 774.093, 361.398 795.988, 353.348 806 C 324.845 841.448, 306.160 881.114, 297.527 924.500 C 292.654 948.989, 292.500 953.073, 292.500 1057.500 L 292.500 1155.500 312.250 1155.771 L 332 1156.042 332.008 1059.271 C 332.013 1001.589, 332.420 958.865, 333.015 953.500 C 343.101 862.594, 402.707 787.585, 488.625 757.679 C 511.280 749.793, 531.955 746.170, 559.250 745.301 C 574.909 744.803, 578 744.460, 578 743.218 C 578 740.597, 569.308 723.280, 563.587 714.502 L 558.045 706 550.272 706.150 C 545.998 706.232, 541.150 706.458, 539.500 706.652 M 1105.918 710.250 C 1098.995 719.759, 1087.428 742.266, 1088.540 744.065 C 1088.757 744.416, 1097.387 744.971, 1107.717 745.299 C 1143.422 746.430, 1171.589 753.087, 1201.749 767.523 C 1227.035 779.626, 1245.217 792.231, 1264.350 810.923 C 1301.272 846.993, 1323.627 890.570, 1332.620 944 C 1334.210 953.447, 1334.423 964.600, 1334.742 1055.250 L 1335.097 1156 1354.592 1156 L 1374.086 1156 1373.733 1051.750 C 1373.356 940.826, 1373.524 945.017, 1368.505 920.961 C 1348.323 824.236, 1272.560 742.985, 1177.500 716.121 C 1157.077 710.349, 1130.332 706, 1115.262 706 C 1109.062 706, 1108.988 706.033, 1105.918 710.250 M 1038.229 1015.750 L 1038.500 1035.500 1153.500 1035.500 L 1268.500 1035.500 1268.771 1015.750 L 1269.042 996 1153.500 996 L 1037.958 996 1038.229 1015.750 M 510 1102.440 C 483.608 1106.228, 463.432 1113.986, 446.197 1126.973 C 409.619 1154.535, 391.829 1211.856, 395.910 1288.999 C 396.543 1300.960, 397.725 1315.192, 398.536 1320.624 C 408.032 1384.197, 447.016 1417.395, 512 1417.248 C 556.490 1417.148, 603.356 1401.302, 650 1370.591 C 694.694 1341.163, 726.831 1304.472, 761.749 1243 C 772.639 1223.830, 786.528 1195.127, 785.439 1194.042 C 783.782 1192.389, 735.470 1167.214, 704 1151.604 C 645.680 1122.676, 608.057 1108.482, 576.182 1103.381 C 562.629 1101.213, 522.527 1100.643, 510 1102.440 M 1065.112 1238.517 C 1046.697 1243.688, 1033.872 1258.054, 1030.969 1276.762 C 1027.755 1297.477, 1039.902 1318.857, 1059 1326.100 C 1072.434 1331.195, 1085.476 1330.638, 1097.820 1324.443 C 1108.358 1319.154, 1116.114 1310.443, 1120.326 1299.168 C 1123.169 1291.557, 1123.341 1275.912, 1120.665 1268.237 C 1116.285 1255.671, 1105.590 1244.647, 1093.225 1239.951 C 1085.732 1237.105, 1072.535 1236.432, 1065.112 1238.517" stroke="none" fill="#7364f3" fill-rule="evenodd"/></svg>