<svg xmlns="http://www.w3.org/2000/svg" xmlns:xlink="http://www.w3.org/1999/xlink" width="500" zoomAndPan="magnify" viewBox="0 0 375 374.999991" height="500" preserveAspectRatio="xMidYMid meet" version="1.0"><defs><g/><clipPath id="06b97f9451"><path d="M 183.621094 178.273438 L 197 178.273438 L 197 208 L 183.621094 208 Z M 183.621094 178.273438 " clip-rule="nonzero"/></clipPath><clipPath id="5464481f4d"><path d="M 252 178.273438 L 265.371094 178.273438 L 265.371094 208 L 252 208 Z M 252 178.273438 " clip-rule="nonzero"/></clipPath><clipPath id="79c6beee66"><path d="M 185.140625 179.753906 L 264.316406 179.753906 L 264.316406 248.441406 L 185.140625 248.441406 Z M 185.140625 179.753906 " clip-rule="nonzero"/></clipPath><clipPath id="701ac7fb24"><path d="M 68 126.429688 L 203.703125 126.429688 L 203.703125 245 L 68 245 Z M 68 126.429688 " clip-rule="nonzero"/></clipPath><clipPath id="994d06f884"><path d="M 185 196.65625 L 203.703125 196.65625 L 203.703125 248.679688 L 185 248.679688 Z M 185 196.65625 " clip-rule="nonzero"/></clipPath><clipPath id="f57118e846"><path d="M 86.972656 177.921875 L 184.988281 177.921875 L 184.988281 197.078125 L 86.972656 197.078125 Z M 86.972656 177.921875 " clip-rule="nonzero"/></clipPath></defs><rect x="-37.5" width="450" fill="#ffffff" y="-37.499999" height="449.999989" fill-opacity="1"/><rect x="-37.5" width="450" fill="#ffffff" y="-37.499999" height="449.999989" fill-opacity="1"/><g clip-path="url(#06b97f9451)"><path fill="#ffffff" d="M 176.347656 207.730469 L 137.640625 207.730469 C 137.328125 207.730469 137.042969 207.5625 136.886719 207.292969 L 117.53125 173.769531 C 117.375 173.5 117.375 173.167969 117.53125 172.898438 L 136.886719 139.375 C 137.042969 139.105469 137.328125 138.941406 137.640625 138.941406 L 176.347656 138.941406 C 176.828125 138.941406 177.21875 139.332031 177.21875 139.8125 C 177.21875 140.292969 176.828125 140.683594 176.347656 140.683594 L 138.140625 140.683594 L 119.292969 173.335938 L 138.140625 205.988281 L 175.847656 205.988281 L 194.949219 172.898438 C 195.191406 172.484375 195.722656 172.339844 196.140625 172.582031 C 196.554688 172.820312 196.699219 173.355469 196.457031 173.769531 L 177.101562 207.292969 C 176.949219 207.5625 176.660156 207.730469 176.347656 207.730469 " fill-opacity="1" fill-rule="nonzero"/></g><g clip-path="url(#5464481f4d)"><path fill="#fbf9f7" d="M 311.832031 207.730469 L 273.121094 207.730469 C 272.8125 207.730469 272.523438 207.5625 272.367188 207.292969 L 253.011719 173.769531 C 252.855469 173.5 252.855469 173.167969 253.011719 172.898438 L 272.367188 139.375 C 272.523438 139.105469 272.8125 138.941406 273.121094 138.941406 L 311.832031 138.941406 C 312.3125 138.941406 312.703125 139.332031 312.703125 139.8125 C 312.703125 140.292969 312.3125 140.683594 311.832031 140.683594 L 273.625 140.683594 L 254.773438 173.335938 L 273.625 205.988281 L 311.328125 205.988281 L 330.429688 172.898438 C 330.671875 172.484375 331.203125 172.339844 331.621094 172.582031 C 332.039062 172.820312 332.179688 173.355469 331.941406 173.769531 L 312.585938 207.292969 C 312.429688 207.5625 312.140625 207.730469 311.832031 207.730469 " fill-opacity="1" fill-rule="nonzero"/></g><g clip-path="url(#79c6beee66)"><path fill="#22c0d4" d="M 244.089844 248.566406 L 205.378906 248.566406 C 204.898438 248.566406 204.511719 248.175781 204.511719 247.695312 C 204.511719 247.214844 204.898438 246.824219 205.378906 246.824219 L 243.585938 246.824219 L 262.4375 214.171875 L 243.585938 181.519531 L 205.882812 181.519531 L 186.78125 214.609375 C 186.539062 215.023438 186.007812 215.167969 185.589844 214.925781 C 185.175781 214.6875 185.03125 214.15625 185.273438 213.738281 L 204.625 180.214844 C 204.78125 179.945312 205.070312 179.777344 205.378906 179.777344 L 244.089844 179.777344 C 244.402344 179.777344 244.6875 179.945312 244.84375 180.214844 L 264.199219 213.738281 C 264.355469 214.007812 264.355469 214.339844 264.199219 214.609375 L 244.84375 248.132812 C 244.6875 248.402344 244.402344 248.566406 244.089844 248.566406 " fill-opacity="1" fill-rule="nonzero"/></g><g clip-path="url(#701ac7fb24)"><path fill="#006677" d="M 169.847656 244.792969 L 103.238281 244.792969 C 102.703125 244.792969 102.210938 244.507812 101.941406 244.042969 L 68.640625 186.359375 C 68.371094 185.898438 68.371094 185.324219 68.640625 184.859375 L 101.941406 127.179688 C 102.210938 126.714844 102.703125 126.429688 103.238281 126.429688 L 169.847656 126.429688 C 170.671875 126.429688 171.34375 127.101562 171.34375 127.929688 C 171.34375 128.757812 170.671875 129.425781 169.847656 129.425781 L 104.105469 129.425781 L 71.667969 185.609375 L 104.105469 241.796875 L 168.980469 241.796875 L 201.851562 184.859375 C 202.265625 184.144531 203.183594 183.898438 203.898438 184.3125 C 204.613281 184.726562 204.859375 185.644531 204.449219 186.359375 L 171.144531 244.042969 C 170.875 244.507812 170.382812 244.792969 169.847656 244.792969 " fill-opacity="1" fill-rule="nonzero"/></g><g clip-path="url(#994d06f884)"><path fill="#ffffff" d="M 286.40625 315.0625 L 219.800781 315.0625 C 218.972656 315.0625 218.300781 314.390625 218.300781 313.5625 C 218.300781 312.734375 218.972656 312.0625 219.800781 312.0625 L 285.542969 312.0625 L 317.980469 255.878906 L 285.542969 199.695312 L 220.667969 199.695312 L 187.796875 256.628906 C 187.382812 257.347656 186.464844 257.59375 185.75 257.179688 C 185.03125 256.765625 184.785156 255.847656 185.199219 255.132812 L 218.503906 197.449219 C 218.769531 196.984375 219.265625 196.699219 219.800781 196.699219 L 286.40625 196.699219 C 286.941406 196.699219 287.4375 196.984375 287.707031 197.449219 L 321.007812 255.132812 C 321.277344 255.59375 321.277344 256.164062 321.007812 256.628906 L 287.707031 314.3125 C 287.4375 314.777344 286.941406 315.0625 286.40625 315.0625 " fill-opacity="1" fill-rule="nonzero"/></g><g fill="#000000" fill-opacity="1"><g transform="translate(86.939336, 212.307843)"><g><path d="M 4.894531 0 L 7.6875 0 C 7.128906 -5.3125 6.921875 -8.457031 6.921875 -14.957031 L 6.921875 -52.773438 L 7.199219 -52.703125 L 36.417969 0 L 50.46875 0 C 49.976562 -5.3125 49.769531 -8.457031 49.769531 -14.957031 L 49.769531 -40.960938 C 49.769531 -47.460938 49.976562 -50.605469 50.46875 -55.917969 L 47.742188 -55.917969 C 48.300781 -50.605469 48.441406 -47.460938 48.441406 -40.960938 L 48.441406 -3.144531 L 48.160156 -3.214844 L 19.011719 -55.917969 L 4.894531 -55.917969 C 5.453125 -50.605469 5.660156 -47.460938 5.660156 -40.960938 L 5.660156 -14.957031 C 5.660156 -8.457031 5.453125 -5.3125 4.894531 0 Z M 4.894531 0 "/></g></g></g><g fill="#000000" fill-opacity="1"><g transform="translate(138.795051, 212.307843)"><g><path d="M 2.796875 -16.214844 C 8.945312 -3.214844 17.40625 1.398438 28.589844 1.398438 C 37.746094 1.398438 45.574219 -3.285156 45.574219 -13.210938 C 45.574219 -22.648438 39.003906 -27.191406 25.792969 -36 C 15.726562 -42.640625 12.652344 -44.804688 12.652344 -49.210938 C 12.652344 -52.984375 15.9375 -55.851562 21.460938 -55.851562 C 30.546875 -55.851562 34.109375 -48.089844 36.136719 -40.402344 L 44.386719 -43.828125 C 38.09375 -53.402344 31.035156 -57.316406 22.15625 -57.316406 C 13.28125 -57.316406 6.082031 -53.125 6.082031 -44.945312 C 6.082031 -37.394531 10.695312 -33.550781 22.089844 -25.792969 C 33.34375 -17.894531 39.074219 -14.191406 39.074219 -8.808594 C 39.074219 -3.285156 35.300781 -0.0703125 29.425781 -0.0703125 C 20.0625 -0.0703125 13.351562 -8.945312 11.113281 -20.828125 Z M 2.796875 -16.214844 "/></g></g></g><g clip-path="url(#f57118e846)"><path fill="#ffffff" d="M 86.972656 177.921875 L 185 177.921875 L 185 197.078125 L 86.972656 197.078125 Z M 86.972656 177.921875 " fill-opacity="1" fill-rule="nonzero"/></g><g fill="#000000" fill-opacity="1"><g transform="translate(83.140092, 190.451222)"><g><path d="M 5.28125 -1.53125 L 1.859375 -1.53125 L 1.203125 0 L 0.015625 0 L 3.015625 -6.796875 L 4.1875 -6.796875 L 7.15625 0 L 5.921875 0 Z M 4.84375 -2.546875 L 3.5625 -5.5625 L 2.28125 -2.546875 Z M 4.84375 -2.546875 "/></g></g></g><g fill="#000000" fill-opacity="1"><g transform="translate(98.054577, 190.451222)"><g><path d="M 0.890625 -6.796875 L 3.671875 -6.796875 C 4.691406 -6.796875 5.53125 -6.472656 6.1875 -5.828125 C 6.851562 -5.191406 7.1875 -4.378906 7.1875 -3.390625 C 7.1875 -2.410156 6.851562 -1.597656 6.1875 -0.953125 C 5.519531 -0.316406 4.671875 0 3.640625 0 L 0.890625 0 Z M 2.03125 -5.765625 L 2.03125 -1.03125 L 3.703125 -1.03125 C 4.367188 -1.03125 4.921875 -1.25 5.359375 -1.6875 C 5.804688 -2.132812 6.03125 -2.703125 6.03125 -3.390625 C 6.03125 -4.078125 5.800781 -4.644531 5.34375 -5.09375 C 4.894531 -5.539062 4.332031 -5.765625 3.65625 -5.765625 Z M 2.03125 -5.765625 "/></g></g></g><g fill="#000000" fill-opacity="1"><g transform="translate(113.327639, 190.451222)"><g><path d="M 3.921875 0 L 2.734375 0 L 0.03125 -6.796875 L 1.265625 -6.796875 L 3.359375 -1.265625 L 5.46875 -6.796875 L 6.671875 -6.796875 Z M 3.921875 0 "/></g></g></g><g fill="#000000" fill-opacity="1"><g transform="translate(127.776934, 190.451222)"><g><path d="M 2.03125 0 L 0.890625 0 L 0.890625 -6.796875 L 2.03125 -6.796875 Z M 2.03125 0 "/></g></g></g><g fill="#000000" fill-opacity="1"><g transform="translate(138.465984, 190.451222)"><g><path d="M 3.125 -6.84375 C 4 -6.84375 4.789062 -6.609375 5.5 -6.140625 L 5.03125 -5.140625 C 4.332031 -5.554688 3.664062 -5.765625 3.03125 -5.765625 C 2.6875 -5.765625 2.414062 -5.703125 2.21875 -5.578125 C 2.03125 -5.453125 1.9375 -5.273438 1.9375 -5.046875 C 1.9375 -4.828125 2.023438 -4.632812 2.203125 -4.46875 C 2.378906 -4.3125 2.601562 -4.195312 2.875 -4.125 C 3.15625 -4.050781 3.453125 -3.957031 3.765625 -3.84375 C 4.078125 -3.726562 4.367188 -3.609375 4.640625 -3.484375 C 4.921875 -3.359375 5.148438 -3.160156 5.328125 -2.890625 C 5.503906 -2.628906 5.59375 -2.304688 5.59375 -1.921875 C 5.59375 -1.328125 5.351562 -0.851562 4.875 -0.5 C 4.394531 -0.144531 3.78125 0.03125 3.03125 0.03125 C 2.507812 0.03125 2.003906 -0.0625 1.515625 -0.25 C 1.035156 -0.445312 0.613281 -0.707031 0.25 -1.03125 L 0.75 -2.03125 C 1.09375 -1.707031 1.46875 -1.457031 1.875 -1.28125 C 2.289062 -1.113281 2.679688 -1.03125 3.046875 -1.03125 C 3.441406 -1.03125 3.75 -1.101562 3.96875 -1.25 C 4.195312 -1.394531 4.3125 -1.597656 4.3125 -1.859375 C 4.3125 -2.097656 4.222656 -2.296875 4.046875 -2.453125 C 3.867188 -2.609375 3.640625 -2.722656 3.359375 -2.796875 C 3.085938 -2.867188 2.796875 -2.957031 2.484375 -3.0625 C 2.171875 -3.175781 1.875 -3.289062 1.59375 -3.40625 C 1.320312 -3.53125 1.097656 -3.722656 0.921875 -3.984375 C 0.742188 -4.253906 0.65625 -4.578125 0.65625 -4.953125 C 0.65625 -5.523438 0.878906 -5.984375 1.328125 -6.328125 C 1.785156 -6.671875 2.382812 -6.84375 3.125 -6.84375 Z M 3.125 -6.84375 "/></g></g></g><g fill="#000000" fill-opacity="1"><g transform="translate(152.256268, 190.451222)"><g><path d="M 1.359375 -5.84375 C 2.054688 -6.5 2.910156 -6.828125 3.921875 -6.828125 C 4.941406 -6.828125 5.796875 -6.5 6.484375 -5.84375 C 7.179688 -5.1875 7.53125 -4.367188 7.53125 -3.390625 C 7.53125 -2.421875 7.179688 -1.601562 6.484375 -0.9375 C 5.796875 -0.28125 4.941406 0.046875 3.921875 0.046875 C 2.910156 0.046875 2.054688 -0.28125 1.359375 -0.9375 C 0.671875 -1.601562 0.328125 -2.421875 0.328125 -3.390625 C 0.328125 -4.367188 0.671875 -5.1875 1.359375 -5.84375 Z M 3.9375 -5.796875 C 3.269531 -5.796875 2.695312 -5.5625 2.21875 -5.09375 C 1.738281 -4.632812 1.5 -4.066406 1.5 -3.390625 C 1.5 -2.722656 1.738281 -2.15625 2.21875 -1.6875 C 2.695312 -1.21875 3.269531 -0.984375 3.9375 -0.984375 C 4.601562 -0.984375 5.171875 -1.21875 5.640625 -1.6875 C 6.117188 -2.15625 6.359375 -2.722656 6.359375 -3.390625 C 6.359375 -4.066406 6.117188 -4.632812 5.640625 -5.09375 C 5.171875 -5.5625 4.601562 -5.796875 3.9375 -5.796875 Z M 3.9375 -5.796875 "/></g></g></g><g fill="#000000" fill-opacity="1"><g transform="translate(167.868521, 190.451222)"><g><path d="M 5.203125 0 L 3.953125 -2.0625 C 3.890625 -2.050781 3.785156 -2.046875 3.640625 -2.046875 L 2.03125 -2.046875 L 2.03125 0 L 0.890625 0 L 0.890625 -6.796875 L 3.640625 -6.796875 C 4.515625 -6.796875 5.191406 -6.59375 5.671875 -6.1875 C 6.148438 -5.78125 6.390625 -5.207031 6.390625 -4.46875 C 6.390625 -3.925781 6.265625 -3.46875 6.015625 -3.09375 C 5.773438 -2.71875 5.429688 -2.441406 4.984375 -2.265625 L 6.5 0 Z M 2.03125 -3.078125 L 3.640625 -3.078125 C 4.742188 -3.078125 5.296875 -3.53125 5.296875 -4.4375 C 5.296875 -5.320312 4.742188 -5.765625 3.640625 -5.765625 L 2.03125 -5.765625 Z M 2.03125 -3.078125 "/></g></g></g><g fill="#000000" fill-opacity="1"><g transform="translate(182.637629, 190.451222)"><g><path d="M 3.671875 -2.265625 L 3.671875 0 L 2.546875 0 L 2.546875 -2.21875 L 0.015625 -6.796875 L 1.171875 -6.796875 L 3.109375 -3.484375 L 5 -6.796875 L 6.171875 -6.796875 Z M 3.671875 -2.265625 "/></g></g></g></svg>